<svg xmlns="http://www.w3.org/2000/svg" xmlns:xlink="http://www.w3.org/1999/xlink" width="500" zoomAndPan="magnify" viewBox="0 0 375 374.999991" height="500" preserveAspectRatio="xMidYMid meet" version="1.0"><defs><g/><clipPath id="56b7f47ae1"><path d="M 78.574219 154.433594 L 119.953125 154.433594 L 119.953125 170.070312 L 78.574219 170.070312 Z M 78.574219 154.433594 " clip-rule="nonzero"/></clipPath><clipPath id="39fcac8d86"><path d="M 0.574219 0.433594 L 41.953125 0.433594 L 41.953125 16.070312 L 0.574219 16.070312 Z M 0.574219 0.433594 " clip-rule="nonzero"/></clipPath><clipPath id="2e40ec8deb"><rect x="0" width="42" y="0" height="17"/></clipPath><clipPath id="626d7f2fe8"><path d="M 78.574219 179.546875 L 117.863281 179.546875 L 117.863281 193.71875 L 78.574219 193.71875 Z M 78.574219 179.546875 " clip-rule="nonzero"/></clipPath><clipPath id="6def726b8a"><path d="M 0.574219 0.546875 L 39.863281 0.546875 L 39.863281 14.71875 L 0.574219 14.71875 Z M 0.574219 0.546875 " clip-rule="nonzero"/></clipPath><clipPath id="451cb2c5e9"><rect x="0" width="40" y="0" height="15"/></clipPath><clipPath id="61f9205ad5"><path d="M 78.574219 203.429688 L 119.953125 203.429688 L 119.953125 219.066406 L 78.574219 219.066406 Z M 78.574219 203.429688 " clip-rule="nonzero"/></clipPath><clipPath id="6a512971bb"><path d="M 0.574219 0.429688 L 41.953125 0.429688 L 41.953125 16.066406 L 0.574219 16.066406 Z M 0.574219 0.429688 " clip-rule="nonzero"/></clipPath><clipPath id="e9655a78c6"><rect x="0" width="42" y="0" height="17"/></clipPath></defs><g fill="#000000" fill-opacity="1"><g transform="translate(21.955081, 218.249986)"><g><path d="M 46.066406 -33.554688 C 49.867188 -36.519531 52.09375 -40.878906 52.09375 -46.4375 C 52.09375 -57.933594 43.566406 -64.882812 30.679688 -64.882812 L 5.097656 -64.882812 L 5.097656 0 L 32.441406 0 C 45.605469 0 54.226562 -7.507812 54.226562 -19.003906 C 54.226562 -25.582031 51.074219 -30.589844 46.066406 -33.554688 Z M 30.21875 -50.054688 C 33.183594 -50.054688 35.5 -48.105469 35.5 -44.957031 C 35.5 -41.617188 33.089844 -39.859375 30.21875 -39.859375 L 21.691406 -39.859375 L 21.691406 -50.054688 Z M 31.980469 -14.832031 L 21.691406 -14.832031 L 21.691406 -25.769531 L 31.980469 -25.769531 C 35.316406 -25.769531 37.632812 -23.636719 37.632812 -20.300781 C 37.632812 -17.148438 35.316406 -14.832031 31.980469 -14.832031 Z M 31.980469 -14.832031 "/></g></g></g><g fill="#000000" fill-opacity="1"><g transform="translate(77.759765, 218.249986)"><g/></g></g><g fill="#000000" fill-opacity="1"><g transform="translate(98.798926, 218.249986)"><g/></g></g><g fill="#000000" fill-opacity="1"><g transform="translate(119.841793, 218.249986)"><g><path d="M 38.929688 0 L 56.726562 0 L 43.378906 -24.007812 C 50.054688 -27.714844 54.410156 -34.480469 54.410156 -42.453125 C 54.410156 -55.523438 44.214844 -64.882812 31.050781 -64.882812 L 5.097656 -64.882812 L 5.097656 0 L 21.691406 0 L 21.691406 -20.949219 L 27.621094 -20.949219 Z M 21.691406 -49.589844 L 30.867188 -49.589844 C 34.945312 -49.589844 37.820312 -46.53125 37.820312 -42.269531 C 37.820312 -37.910156 34.945312 -34.945312 30.867188 -35.039062 L 21.691406 -35.039062 Z M 21.691406 -49.589844 "/></g></g></g><g fill="#000000" fill-opacity="1"><g transform="translate(177.305596, 218.249986)"><g><path d="M 24.5625 -16.035156 L 47.457031 -52.09375 L 47.457031 -64.882812 L 3.523438 -64.882812 L 3.523438 -48.847656 L 25.953125 -48.847656 L 3.058594 -12.792969 L 3.058594 0 L 48.199219 0 L 48.199219 -16.035156 Z M 24.5625 -16.035156 "/></g></g></g><g fill="#000000" fill-opacity="1"><g transform="translate(228.281617, 218.249986)"><g><path d="M 44.679688 0 L 62.566406 0 L 41.15625 -64.882812 L 20.949219 -64.882812 L -0.464844 0 L 17.519531 0 L 20.300781 -9.363281 L 41.898438 -9.363281 Z M 24.5625 -23.636719 L 31.050781 -45.699219 L 37.632812 -23.636719 Z M 24.5625 -23.636719 "/></g></g></g><g fill="#000000" fill-opacity="1"><g transform="translate(290.472275, 218.249986)"><g><path d="M 40.878906 -64.882812 L 40.878906 -32.257812 L 17.980469 -64.882812 L 5.097656 -64.882812 L 5.097656 0 L 21.691406 0 L 21.691406 -32.628906 L 44.585938 0 L 57.375 0 L 57.375 -64.882812 Z M 40.878906 -64.882812 "/></g></g></g><g clip-path="url(#56b7f47ae1)"><g transform="matrix(1, 0, 0, 1, 78, 154)"><g clip-path="url(#2e40ec8deb)"><g clip-path="url(#39fcac8d86)"><path fill="#ffd700" d="M 0.574219 0.433594 L 41.929688 0.433594 L 41.929688 16.070312 L 0.574219 16.070312 Z M 0.574219 0.433594 " fill-opacity="1" fill-rule="nonzero"/></g></g></g></g><g clip-path="url(#626d7f2fe8)"><g transform="matrix(1, 0, 0, 1, 78, 179)"><g clip-path="url(#451cb2c5e9)"><g clip-path="url(#6def726b8a)"><path fill="#ffd700" d="M 0.574219 0.546875 L 39.878906 0.546875 L 39.878906 14.71875 L 0.574219 14.71875 Z M 0.574219 0.546875 " fill-opacity="1" fill-rule="nonzero"/></g></g></g></g><g clip-path="url(#61f9205ad5)"><g transform="matrix(1, 0, 0, 1, 78, 203)"><g clip-path="url(#e9655a78c6)"><g clip-path="url(#6a512971bb)"><path fill="#ffd700" d="M 0.574219 0.429688 L 41.929688 0.429688 L 41.929688 16.066406 L 0.574219 16.066406 Z M 0.574219 0.429688 " fill-opacity="1" fill-rule="nonzero"/></g></g></g></g></svg>