<svg width="184" height="42" viewBox="0 0 184 42" fill="none" xmlns="http://www.w3.org/2000/svg" role="img" aria-labelledby="title desc">
  <title id="title">BERZAN</title>
  <desc id="desc">BERZAN kurumsal tedarik logosu</desc>
  <rect x="1" y="1" width="40" height="40" rx="12" fill="#131D2E"/>
  <path d="M21 8L33 21L21 34L9 21L21 8Z" fill="#FFD700"/>
  <path d="M21 14L27 21L21 28L15 21L21 14Z" fill="#131D2E"/>
  <path d="M58.44 31V11.4H68.2C72.28 11.4 74.64 13.54 74.64 16.62C74.64 18.58 73.54 20.12 71.76 20.86C73.9 21.5 75.26 23.22 75.26 25.48C75.26 28.82 72.7 31 68.46 31H58.44ZM63.04 19.42H67.62C69.12 19.42 69.98 18.66 69.98 17.38C69.98 16.1 69.12 15.34 67.62 15.34H63.04V19.42ZM63.04 27.06H68.04C69.68 27.06 70.6 26.24 70.6 24.88C70.6 23.5 69.68 22.68 68.04 22.68H63.04V27.06Z" fill="#131D2E"/>
  <path d="M78.474 31V11.4H94.086V15.48H83.074V19.14H93.106V23.06H83.074V26.92H94.226V31H78.474Z" fill="#131D2E"/>
  <path d="M97.455 31V11.4H107.075C111.455 11.4 114.015 13.72 114.015 17.58C114.015 20.26 112.715 22.24 110.355 23.18L114.575 31H109.455L105.795 23.9H102.055V31H97.455ZM102.055 20.02H106.655C108.375 20.02 109.315 19.18 109.315 17.66C109.315 16.14 108.375 15.34 106.655 15.34H102.055V20.02Z" fill="#131D2E"/>
  <path d="M116.061 31V27.7L126.681 15.48H116.341V11.4H132.721V14.7L122.101 26.92H132.981V31H116.061Z" fill="#131D2E"/>
  <path d="M134.079 31L141.459 11.4H146.499L153.879 31H149.019L147.639 27.06H140.179L138.799 31H134.079ZM141.479 23.28H146.339L143.919 16.38L141.479 23.28Z" fill="#131D2E"/>
  <path d="M156.223 31V11.4H160.263L169.543 23.24V11.4H174.003V31H170.183L160.683 18.9V31H156.223Z" fill="#131D2E"/>
</svg>
