<?xml version="1.0" encoding="utf-8"?>
<!-- Generator: Adobe Illustrator 28.0.0, SVG Export Plug-In . SVG Version: 6.00 Build 0)  -->
<svg version="1.1" id="Layer_1" xmlns="http://www.w3.org/2000/svg" xmlns:xlink="http://www.w3.org/1999/xlink" x="0px" y="0px"
	 viewBox="0 0 1500 1500" style="enable-background:new 0 0 1500 1500;" xml:space="preserve">
<g>
	<g>
		<path d="M737.2,671.9c39.7,0,55.6,21.9,48.8,60.3L772.6,808c-1.4,7.7-4.7,10.4-12.3,10.4h-30.1c-7.9,0-9.9-2.7-8.5-10.4l13.2-75.6
			c1.9-9.6-1.9-14.5-11.2-14.5c-3.6,0-7.7,0.5-11.8,1.4c0,3.6-0.5,7.7-1.4,12.6L696.9,808c-1.4,7.7-4.4,10.4-12.3,10.4h-30.1
			c-7.7,0-9.9-2.7-8.5-10.4l13.4-75.6c1.4-10.7-1.6-14.5-11.5-14.5c-3,0-6.3,0.3-9.6,0.8c-0.5,0.3-1.1,0.8-1.4,1.6L621.6,808
			c-1.4,7.7-4.7,10.4-12.6,10.4h-29.9c-7.9,0-10.1-2.7-8.8-10.4l19.5-109.6c1.9-9,4.4-12.9,14.2-16.4c18.4-6.9,37.5-10.1,57.5-10.1
			c13.4,0,24.4,2.5,32.3,7.4C708.5,674.3,722.7,671.9,737.2,671.9"/>
		<path d="M795,729.7c6.6-37,34.5-57.8,78.1-57.8c40.8,0,63.8,18.1,59.4,50.7c-4.1,25.2-26,39.7-61.1,39.7c-9.6,0-19.7-0.5-31-1.6
			l-1.1,5.8c-1.9,11.8,3,17.5,14.8,17.5c9.6,0,17.5-3.3,23.8-9.9c5.2-5.5,7.9-6.8,15.9-2.7l17.8,9c6.6,3.6,7.4,8.8,2.5,15.9
			c-12.9,17.5-35.1,26.3-66.6,26.3c-46.8,0-64.7-26-57.8-64.4L795,729.7z M867.6,708c-11.5,0-18.4,5.8-20.8,17l-0.8,3
			c6.9,0.8,13.2,1.4,18.9,1.4c10.7,0,16.7-3.3,17.8-10.1C883.8,711.8,878.8,708,867.6,708"/>
		<path d="M1062.6,804.4c3.3,9.9,0,14-11.2,14h-24.9c-12.9,0-16.2-1.6-18.1-10.4l-6.6-33.7c-1.4-5.5-4.9-8.2-11-8.2h-5.2l-7.4,41.6
			c-1.4,7.9-4.4,10.7-12.3,10.7H936c-7.9,0-10.1-2.7-8.8-10.7l27.1-155.1c1.4-7.9,4.7-10.7,12.6-10.7h29.9c7.9,0,9.9,2.7,8.5,10.7
			L993,725.3h4.1h1.6l29.9-39.4c5.8-7.9,9.6-9.9,21.4-9.9h24.4c11.2,0,13.2,4.4,6.3,13.4l-40.3,53.1c3,3,5.2,7.1,6.6,12.3
			L1062.6,804.4z"/>
		<path d="M1075.2,729.7c6.9-39.7,31.5-57.8,76.7-57.8c22.7,0,40.3,3,52.6,9.3c8.5,4.4,9.6,6.8,7.7,15.9l-18.6,106
			c-1.4,7.7-4.1,10.7-12.6,12.9c-18.1,4.4-37.8,6.6-59.4,6.6c-40.8,0-58.4-24.7-51.5-63.3L1075.2,729.7z M1145.6,716.2
			c-12.1,0-17.8,4.1-19.7,15.1l-6,33.4c-1.4,9,3,13.7,13.2,13.7c5.8,0,10.7-0.5,14.2-1.4l10.1-57.8c0.3-1.1,0-1.6-1.1-1.9
			C1153.5,716.5,1150,716.2,1145.6,716.2"/>
		<path d="M1296.5,671.9c41.9,0,58.9,23.6,52.1,61.9l-5.2,29.9c-6.9,39.2-31.5,58.9-74,58.9c-2.5,0-7.9-0.5-16.4-1.4l-5,26.4
			c-1.4,7.9-4.4,10.4-12.3,10.4h-30.1c-7.9,0-9.9-2.5-8.5-10.4l26.9-150.5c1.9-9,4.1-12.3,14-15.9
			C1254.6,674.9,1274.3,671.9,1296.5,671.9 M1298.4,729.7c1.6-9-2.7-13.4-13.2-13.4c-5.5,0-9.9,0.5-12.9,1.4
			c-0.6,0.3-1.1,0.8-1.4,1.6l-10.1,57.8c3.6,0.8,7.7,1.4,11.8,1.4c11.2,0,17.8-4.9,19.7-15.1L1298.4,729.7z"/>
	</g>
	<g>
		<path d="M164.7,753.1l-14.4,84.3c-3.2,18.8,19.1,27.8,34.5,13.9l103.9-93c5.4-4.8,8.9-11.3,10.2-18.4l13.2-77.2
			c3.2-18.6-18.6-27.7-34.2-14.3l-104.8,90.4C168.6,742.6,165.6,747.8,164.7,753.1"/>
		<path d="M304.2,737.3c-5.6,4.8-9.4,11.5-10.6,18.8l-13.9,81.3c-3.2,18.8,19.1,27.8,34.5,13.9l103.9-93c5.4-4.8,8.9-11.3,10.2-18.4
			l13.2-77.2c3.2-18.6-18.6-27.7-34.2-14.3L304.2,737.3z"/>
		<path d="M433.6,737.3c-5.6,4.8-9.4,11.5-10.6,18.8L409,837.3c-3.2,18.8,19.1,27.8,34.5,13.9l105.5-94.5c4.2-3.8,7.1-8.8,8-13.9
			l13.7-80.1c3.2-18.6-18.6-27.7-34.2-14.3L433.6,737.3z"/>
	</g>
</g>
</svg>
